            <svg width="159" height="45" viewBox="0 0 159 45" fill="none" xmlns="http://www.w3.org/2000/svg">
              <path
                d="M25 28.4375C24.375 28.4375 23.8125 28.5625 23.3125 28.8125L20.25 25L23.75 20.5625C24.25 20.8125 24.75 20.9375 25.3125 20.9375C27.375 20.9375 29.0625 19.25 29.0625 17.1875C29.0625 15.125 27.375 13.4375 25.3125 13.4375C23.25 13.4375 21.5625 15.125 21.5625 17.1875C21.5625 18 21.8125 18.8125 22.3125 19.4375L18.625 24.0625H13.9375C13.5 22.25 11.9375 20.9375 10 20.9375C7.75 20.9375 5.9375 22.75 5.9375 25C5.9375 27.25 7.75 29.0625 10 29.0625C11.9375 29.0625 13.5 27.75 13.9375 25.9375H18.625L21.8125 30C21.25 30.6875 20.9375 31.5625 20.9375 32.5C20.9375 34.75 22.75 36.5625 25 36.5625C27.25 36.5625 29.0625 34.75 29.0625 32.5C29.0625 30.25 27.25 28.4375 25 28.4375Z"
                fill="#C7C3F9"
              />
              <path
                d="M7.5 26.5625C5.25 26.5625 3.4375 24.75 3.4375 22.5C3.4375 20.25 5.25 18.4375 7.5 18.4375C9.75 18.4375 11.5625 20.25 11.5625 22.5"
                stroke="black"
                strokeWidth="3"
                strokeMiterlimit="10"
                strokeLinecap="round"
                strokeLinejoin="round"
              />
              <path
                d="M22.8125 10.9375C24.875 10.9375 26.5625 12.625 26.5625 14.6875C26.5625 16.75 24.875 18.4375 22.8125 18.4375C20.75 18.4375 19.0625 16.75 19.0625 14.6875C19.0625 14.625 19.0625 14.625 19.0625 14.5625"
                stroke="black"
                strokeWidth="3"
                strokeMiterlimit="10"
                strokeLinecap="round"
                strokeLinejoin="round"
              />
              <path
                d="M22.5 34.0625C20.25 34.0625 18.4375 32.25 18.4375 30C18.4375 27.75 20.25 25.9375 22.5 25.9375C24.75 25.9375 26.5625 27.75 26.5625 30C26.5625 30.4375 26.5 30.875 26.375 31.3125"
                stroke="black"
                strokeWidth="3"
                strokeMiterlimit="10"
                strokeLinecap="round"
                strokeLinejoin="round"
              />
              <path
                d="M11.5625 22.5H16.5625L20.375 17.6875"
                stroke="black"
                strokeWidth="3"
                strokeMiterlimit="10"
                strokeLinecap="round"
                strokeLinejoin="round"
              />
              <path
                d="M16.5625 22.5L19.9375 26.75"
                stroke="black"
                strokeWidth="3"
                strokeMiterlimit="10"
                strokeLinecap="round"
                strokeLinejoin="round"
              />
              <path
                d="M53.512 32.336C52.336 32.336 51.2813 32.084 50.348 31.58C49.4147 31.0573 48.6773 30.3387 48.136 29.424C47.5947 28.5093 47.324 27.4733 47.324 26.316V17.748C47.324 17.4493 47.2493 17.1787 47.1 16.936C46.9507 16.6933 46.7547 16.4973 46.512 16.348C46.2693 16.1987 45.9987 16.124 45.7 16.124C45.4013 16.124 45.1307 16.1987 44.888 16.348C44.6453 16.4973 44.4493 16.6933 44.3 16.936C44.1693 17.1787 44.104 17.4493 44.104 17.748V32H39.512V18.084C39.512 16.908 39.7733 15.872 40.296 14.976C40.8373 14.08 41.5747 13.3707 42.508 12.848C43.46 12.3253 44.524 12.064 45.7 12.064C46.8947 12.064 47.9587 12.3253 48.892 12.848C49.8253 13.3707 50.5627 14.08 51.104 14.976C51.6453 15.872 51.916 16.908 51.916 18.084V26.652C51.916 26.9507 51.9907 27.2307 52.14 27.492C52.2893 27.7347 52.476 27.9307 52.7 28.08C52.9427 28.2107 53.204 28.276 53.484 28.276C53.7827 28.276 54.0533 28.2107 54.296 28.08C54.5573 27.9307 54.7627 27.7347 54.912 27.492C55.0613 27.2307 55.136 26.9507 55.136 26.652V12.4H59.7V26.316C59.7 27.4733 59.4293 28.5093 58.888 29.424C58.3467 30.3387 57.6093 31.0573 56.676 31.58C55.7427 32.084 54.688 32.336 53.512 32.336ZM68.6342 32.336C67.3649 32.336 66.2449 32.0093 65.2742 31.356C64.3035 30.7027 63.5475 29.8253 63.0062 28.724C62.4649 27.604 62.1942 26.344 62.1942 24.944C62.1942 23.488 62.5115 22.1907 63.1462 21.052C63.7809 19.8947 64.6769 18.98 65.8342 18.308C67.0102 17.636 68.3915 17.3 69.9782 17.3C71.5835 17.3 72.9462 17.636 74.0662 18.308C75.2049 18.9613 76.0729 19.8667 76.6702 21.024C77.2862 22.1627 77.5942 23.4413 77.5942 24.86V32H73.3382V29.704H73.2262C72.9649 30.208 72.6289 30.6653 72.2182 31.076C71.8075 31.468 71.3035 31.776 70.7062 32C70.1275 32.224 69.4369 32.336 68.6342 32.336ZM69.9222 28.584C70.5755 28.584 71.1449 28.4253 71.6302 28.108C72.1342 27.772 72.5169 27.3147 72.7782 26.736C73.0395 26.1573 73.1702 25.5133 73.1702 24.804C73.1702 24.1133 73.0395 23.488 72.7782 22.928C72.5169 22.368 72.1342 21.9293 71.6302 21.612C71.1449 21.276 70.5755 21.108 69.9222 21.108C69.2502 21.108 68.6622 21.276 68.1582 21.612C67.6542 21.9293 67.2715 22.368 67.0102 22.928C66.7489 23.488 66.6182 24.1133 66.6182 24.804C66.6182 25.5133 66.7489 26.1573 67.0102 26.736C67.2715 27.3147 67.6542 27.772 68.1582 28.108C68.6622 28.4253 69.2502 28.584 69.9222 28.584ZM80.8037 32V11.56H85.1437V23.068H87.0477L90.3237 17.636H95.1677L91.3037 23.628C92.4237 24.0947 93.2917 24.8133 93.9077 25.784C94.5424 26.736 94.8597 27.856 94.8597 29.144V32H90.4917V29.144C90.4917 28.6213 90.361 28.1547 90.0997 27.744C89.857 27.3147 89.5304 26.9787 89.1197 26.736C88.709 26.4933 88.2424 26.372 87.7197 26.372H85.1437V32H80.8037ZM103.415 32.336C102.146 32.336 101.026 32.0093 100.055 31.356C99.0848 30.7027 98.3288 29.8253 97.7874 28.724C97.2461 27.604 96.9754 26.344 96.9754 24.944C96.9754 23.488 97.2928 22.1907 97.9274 21.052C98.5621 19.8947 99.4581 18.98 100.615 18.308C101.791 17.636 103.173 17.3 104.759 17.3C106.365 17.3 107.727 17.636 108.847 18.308C109.986 18.9613 110.854 19.8667 111.451 21.024C112.067 22.1627 112.375 23.4413 112.375 24.86V32H108.119V29.704H108.007C107.746 30.208 107.41 30.6653 106.999 31.076C106.589 31.468 106.085 31.776 105.487 32C104.909 32.224 104.218 32.336 103.415 32.336ZM104.703 28.584C105.357 28.584 105.926 28.4253 106.411 28.108C106.915 27.772 107.298 27.3147 107.559 26.736C107.821 26.1573 107.951 25.5133 107.951 24.804C107.951 24.1133 107.821 23.488 107.559 22.928C107.298 22.368 106.915 21.9293 106.411 21.612C105.926 21.276 105.357 21.108 104.703 21.108C104.031 21.108 103.443 21.276 102.939 21.612C102.435 21.9293 102.053 22.368 101.791 22.928C101.53 23.488 101.399 24.1133 101.399 24.804C101.399 25.5133 101.53 26.1573 101.791 26.736C102.053 27.3147 102.435 27.772 102.939 28.108C103.443 28.4253 104.031 28.584 104.703 28.584ZM115.585 32V23.516C115.585 22.34 115.856 21.2853 116.397 20.352C116.957 19.4 117.75 18.6533 118.777 18.112C119.804 17.5707 121.026 17.3 122.445 17.3C123.154 17.3 123.808 17.384 124.405 17.552C125.002 17.7013 125.544 17.916 126.029 18.196C126.533 18.4573 126.962 18.7747 127.317 19.148H127.373C127.746 18.7747 128.176 18.4573 128.661 18.196C129.165 17.916 129.716 17.7013 130.313 17.552C130.929 17.384 131.592 17.3 132.301 17.3C133.72 17.3 134.942 17.5707 135.969 18.112C136.996 18.6533 137.789 19.4 138.349 20.352C138.909 21.2853 139.189 22.34 139.189 23.516V32H134.821V23.656C134.821 23.1893 134.7 22.7693 134.457 22.396C134.233 22.004 133.925 21.6867 133.533 21.444C133.141 21.2013 132.693 21.08 132.189 21.08C131.685 21.08 131.228 21.2013 130.817 21.444C130.425 21.6867 130.117 22.004 129.893 22.396C129.669 22.7693 129.557 23.1893 129.557 23.656V32H125.217V23.656C125.217 23.1893 125.096 22.7693 124.853 22.396C124.629 22.004 124.312 21.6867 123.901 21.444C123.509 21.2013 123.061 21.08 122.557 21.08C122.053 21.08 121.596 21.2013 121.185 21.444C120.793 21.6867 120.485 22.004 120.261 22.396C120.037 22.7693 119.925 23.1893 119.925 23.656V32H115.585ZM148.177 32.336C146.908 32.336 145.788 32.0093 144.817 31.356C143.846 30.7027 143.09 29.8253 142.549 28.724C142.008 27.604 141.737 26.344 141.737 24.944C141.737 23.488 142.054 22.1907 142.689 21.052C143.324 19.8947 144.22 18.98 145.377 18.308C146.553 17.636 147.934 17.3 149.521 17.3C151.126 17.3 152.489 17.636 153.609 18.308C154.748 18.9613 155.616 19.8667 156.213 21.024C156.829 22.1627 157.137 23.4413 157.137 24.86V32H152.881V29.704H152.769C152.508 30.208 152.172 30.6653 151.761 31.076C151.35 31.468 150.846 31.776 150.249 32C149.67 32.224 148.98 32.336 148.177 32.336ZM149.465 28.584C150.118 28.584 150.688 28.4253 151.173 28.108C151.677 27.772 152.06 27.3147 152.321 26.736C152.582 26.1573 152.713 25.5133 152.713 24.804C152.713 24.1133 152.582 23.488 152.321 22.928C152.06 22.368 151.677 21.9293 151.173 21.612C150.688 21.276 150.118 21.108 149.465 21.108C148.793 21.108 148.205 21.276 147.701 21.612C147.197 21.9293 146.814 22.368 146.553 22.928C146.292 23.488 146.161 24.1133 146.161 24.804C146.161 25.5133 146.292 26.1573 146.553 26.736C146.814 27.3147 147.197 27.772 147.701 28.108C148.205 28.4253 148.793 28.584 149.465 28.584Z"
                fill="#584BEA"
              />
            </svg>